# xmcd
#
# Track frame offsets:
#	150
#	19032
#	35749
#	50361
#	59711
#	78000
#	106097
#	125307
#	146160
#	162714
#	179194
#	197210
#	220802
#	256848
#
# Disc length: 3540 seconds
#
# Revision: 1
# Processed by: cddbd v1.4PL0 Copyright (c) Steve Scherf et al.
# Submitted via: audiograbber 1.81.03
#
DISCID=cf0dd20e
DTITLE=Bird Dog Bobby - Woof
DYEAR=2001
DGENRE=Blues
TTITLE0=Mr. Time
TTITLE1=Scratchin' Post
TTITLE2='Till The Likes of Me
TTITLE3=New Shoes
TTITLE4=Emmanuella
TTITLE5=Little Red Rooster
TTITLE6=Nadine
TTITLE7=Lucinda, Lucinda
TTITLE8=Pullin' Taffy
TTITLE9=Rockin' Sea
TTITLE10=Key To The Highway
TTITLE11=No Wasted Love
TTITLE12=The Answer
TTITLE13=New Shoes (second pair)
EXTD=
EXTT0=
EXTT1=
EXTT2=
EXTT3=
EXTT4=
EXTT5=
EXTT6=
EXTT7=
EXTT8=
EXTT9=
EXTT10=
EXTT11=
EXTT12=
EXTT13=
PLAYORDER=
